<svg width="170" height="40" viewBox="0 0 170 40" fill="none" xmlns="http://www.w3.org/2000/svg">
<path d="M39.5 39.5H0V0H39.5V39.5ZM4.9 34.6H34.5999V4.9H4.9V34.6Z" fill="#161616"/>
<path d="M52.8999 0H48V39.5H52.8999V0Z" fill="#3170DE"/>
<path d="M159.517 22.005V31.0483H155.179V15.4058H159.313V18.1657H159.497C159.843 17.2559 160.423 16.5362 161.238 16.0067C162.053 15.4703 163.041 15.2021 164.202 15.2021C165.288 15.2021 166.235 15.4398 167.043 15.915C167.851 16.3903 168.479 17.0692 168.927 17.9518C169.375 18.8276 169.599 19.8732 169.599 21.0884V31.0483H165.261V21.8624C165.268 20.9051 165.023 20.1583 164.528 19.622C164.032 19.0788 163.35 18.8072 162.481 18.8072C161.897 18.8072 161.381 18.9328 160.933 19.184C160.491 19.4353 160.145 19.8019 159.894 20.2839C159.649 20.7592 159.524 21.3328 159.517 22.005Z" fill="#161616"/>
<path d="M145.166 31.3538C143.557 31.3538 142.172 31.0279 141.011 30.3761C139.857 29.7176 138.968 28.7875 138.343 27.5858C137.719 26.3773 137.406 24.9481 137.406 23.2983C137.406 21.6893 137.719 20.2771 138.343 19.0618C138.968 17.8466 139.847 16.8995 140.981 16.2205C142.121 15.5416 143.459 15.2021 144.993 15.2021C146.025 15.2021 146.986 15.3685 147.875 15.7012C148.771 16.027 149.552 16.5193 150.218 17.1778C150.89 17.8364 151.412 18.6647 151.786 19.6627C152.159 20.6539 152.346 21.8149 152.346 23.1456V24.3371H139.138V21.6485H148.262C148.262 21.0239 148.126 20.4706 147.855 19.9886C147.583 19.5065 147.207 19.1297 146.725 18.8582C146.249 18.5798 145.696 18.4406 145.065 18.4406C144.406 18.4406 143.822 18.5934 143.313 18.8989C142.811 19.1976 142.417 19.6016 142.132 20.1108C141.846 20.6132 141.7 21.1733 141.694 21.7911V24.3473C141.694 25.1213 141.836 25.79 142.121 26.3535C142.413 26.917 142.824 27.3515 143.354 27.657C143.883 27.9626 144.511 28.1153 145.238 28.1153C145.72 28.1153 146.161 28.0474 146.562 27.9116C146.962 27.7759 147.305 27.5722 147.59 27.3006C147.875 27.029 148.093 26.6964 148.242 26.3026L152.254 26.5674C152.051 27.5314 151.633 28.3733 151.002 29.093C150.377 29.8058 149.569 30.3626 148.578 30.7631C147.594 31.1569 146.456 31.3538 145.166 31.3538Z" fill="#161616"/>
<path d="M136.322 15.4062L130.853 31.0487H125.965L120.496 15.4062H125.079L128.328 26.5983H128.49L131.729 15.4062H136.322Z" fill="#161616"/>
<path d="M111.722 31.3538C110.141 31.3538 108.773 31.0177 107.618 30.3456C106.471 29.6667 105.585 28.723 104.96 27.5145C104.336 26.2992 104.023 24.8904 104.023 23.2882C104.023 21.6723 104.336 20.2601 104.96 19.0517C105.585 17.8364 106.471 16.8927 107.618 16.2205C108.773 15.5416 110.141 15.2021 111.722 15.2021C113.304 15.2021 114.669 15.5416 115.816 16.2205C116.971 16.8927 117.86 17.8364 118.485 19.0517C119.109 20.2601 119.421 21.6723 119.421 23.2882C119.421 24.8904 119.109 26.2992 118.485 27.5145C117.86 28.723 116.971 29.6667 115.816 30.3456C114.669 31.0177 113.304 31.3538 111.722 31.3538ZM111.743 27.9931C112.462 27.9931 113.063 27.7894 113.545 27.3821C114.027 26.9679 114.391 26.4044 114.635 25.6916C114.886 24.9787 115.012 24.1674 115.012 23.2576C115.012 22.3478 114.886 21.5365 114.635 20.8237C114.391 20.1108 114.027 19.5473 113.545 19.1331C113.063 18.719 112.462 18.5119 111.743 18.5119C111.016 18.5119 110.405 18.719 109.91 19.1331C109.421 19.5473 109.051 20.1108 108.8 20.8237C108.555 21.5365 108.433 22.3478 108.433 23.2576C108.433 24.1674 108.555 24.9787 108.8 25.6916C109.051 26.4044 109.421 26.9679 109.91 27.3821C110.405 27.7894 111.016 27.9931 111.743 27.9931Z" fill="#161616"/>
<path d="M91.1547 22.005V31.0483H86.8164V15.4058H90.9511V18.1657H91.1344C91.4806 17.2559 92.0611 16.5362 92.8758 16.0067C93.6905 15.4703 94.6784 15.2021 95.8393 15.2021C96.9256 15.2021 97.8727 15.4398 98.6806 15.915C99.4886 16.3903 100.117 17.0692 100.565 17.9518C101.013 18.8276 101.237 19.8732 101.237 21.0884V31.0483H96.8985V21.8624C96.9052 20.9051 96.6608 20.1583 96.1652 19.622C95.6696 19.0788 94.9873 18.8072 94.1183 18.8072C93.5344 18.8072 93.0184 18.9328 92.5703 19.184C92.129 19.4353 91.7827 19.8019 91.5315 20.2839C91.2871 20.7592 91.1615 21.3328 91.1547 22.005Z" fill="#161616"/>
<path d="M73.3149 22.005V31.0483H68.9766V15.4058H73.1112V18.1657H73.2945C73.6408 17.2559 74.2213 16.5362 75.036 16.0067C75.8507 15.4703 76.8385 15.2021 77.9995 15.2021C79.0858 15.2021 80.0329 15.4398 80.8408 15.915C81.6487 16.3903 82.2767 17.0692 82.7248 17.9518C83.1729 18.8276 83.3969 19.8732 83.3969 21.0884V31.0483H79.0586V21.8624C79.0654 20.9051 78.821 20.1583 78.3254 19.622C77.8298 19.0788 77.1474 18.8072 76.2784 18.8072C75.6945 18.8072 75.1785 18.9328 74.7305 19.184C74.2892 19.4353 73.9429 19.8019 73.6917 20.2839C73.4473 20.7592 73.3217 21.3328 73.3149 22.005Z" fill="#161616"/>
<path d="M61.1629 31.0481V15.4057H65.5013V31.0481H61.1629ZM63.3423 13.3893C62.6973 13.3893 62.144 13.1754 61.6823 12.7477C61.2274 12.3132 61 11.7938 61 11.1895C61 10.5921 61.2274 10.0795 61.6823 9.65177C62.144 9.21726 62.6973 9 63.3423 9C63.9873 9 64.5372 9.21726 64.9921 9.65177C65.4538 10.0795 65.6846 10.5921 65.6846 11.1895C65.6846 11.7938 65.4538 12.3132 64.9921 12.7477C64.5372 13.1754 63.9873 13.3893 63.3423 13.3893Z" fill="#161616"/>
</svg>
